<mxfile host="app.diagrams.net" modified="2020-12-23T06:03:59.710Z" agent="5.0 (Windows NT 10.0; WOW64) AppleWebKit/537.36 (KHTML, like Gecko) Chrome/70.0.3538.25 Safari/537.36 Core/1.70.3861.400 QQBrowser/10.7.4313.400" etag="brHonWp2w4RIZYTzgjPM" version="14.1.1" type="github">
  <diagram id="v8sGLVyEiVf0KtJKTmZj" name="Page-1">
    <mxGraphModel dx="1381" dy="889" grid="1" gridSize="10" guides="1" tooltips="1" connect="1" arrows="1" fold="1" page="1" pageScale="1" pageWidth="827" pageHeight="1169" math="0" shadow="0">
      <root>
        <mxCell id="0" />
        <mxCell id="1" parent="0" />
        <mxCell id="K9eSAnusQMczQDVNusgp-3" style="edgeStyle=orthogonalEdgeStyle;rounded=0;orthogonalLoop=1;jettySize=auto;html=1;exitX=0.5;exitY=1;exitDx=0;exitDy=0;" edge="1" parent="1" source="K9eSAnusQMczQDVNusgp-1" target="K9eSAnusQMczQDVNusgp-2">
          <mxGeometry relative="1" as="geometry" />
        </mxCell>
        <mxCell id="K9eSAnusQMczQDVNusgp-1" value="" style="rounded=0;whiteSpace=wrap;html=1;" vertex="1" parent="1">
          <mxGeometry x="190" y="270" width="120" height="60" as="geometry" />
        </mxCell>
        <mxCell id="K9eSAnusQMczQDVNusgp-2" value="" style="shape=cylinder3;whiteSpace=wrap;html=1;boundedLbl=1;backgroundOutline=1;size=15;" vertex="1" parent="1">
          <mxGeometry x="240" y="480" width="60" height="80" as="geometry" />
        </mxCell>
      </root>
    </mxGraphModel>
  </diagram>
</mxfile>
